<mxfile host="app.diagrams.net" agent="Mozilla/5.0 (Windows NT 10.0; Win64; x64) AppleWebKit/537.36 (KHTML, like Gecko) Chrome/136.0.0.0 Safari/537.36" version="27.0.6">
  <diagram name="Page-1" id="dBYXtgt6Ylbxck-MdJjQ">
    <mxGraphModel dx="1025" dy="459" grid="1" gridSize="10" guides="1" tooltips="1" connect="1" arrows="1" fold="1" page="1" pageScale="1" pageWidth="827" pageHeight="1169" math="0" shadow="0">
      <root>
        <mxCell id="0" />
        <mxCell id="1" parent="0" />
        <mxCell id="dOOHwNBojhcKGmngFrtv-1" value="" style="whiteSpace=wrap;html=1;aspect=fixed;" parent="1" vertex="1">
          <mxGeometry x="230" y="70" width="430" height="430" as="geometry" />
        </mxCell>
        <mxCell id="QHqVFNuvtq8AHjIu-KcG-1" value="Caissier" style="shape=umlActor;verticalLabelPosition=bottom;verticalAlign=top;html=1;" vertex="1" parent="1">
          <mxGeometry x="190" y="210" width="30" height="60" as="geometry" />
        </mxCell>
        <mxCell id="QHqVFNuvtq8AHjIu-KcG-4" value="enregistre un article un par un" style="ellipse;whiteSpace=wrap;html=1;" vertex="1" parent="1">
          <mxGeometry x="310" y="205" width="134" height="60" as="geometry" />
        </mxCell>
        <mxCell id="QHqVFNuvtq8AHjIu-KcG-5" value="prendre payement" style="ellipse;whiteSpace=wrap;html=1;" vertex="1" parent="1">
          <mxGeometry x="280" y="310" width="134" height="50" as="geometry" />
        </mxCell>
        <mxCell id="QHqVFNuvtq8AHjIu-KcG-14" value="" style="line;strokeWidth=1;fillColor=none;align=left;verticalAlign=middle;spacingTop=-1;spacingLeft=3;spacingRight=3;rotatable=0;labelPosition=right;points=[];portConstraint=eastwest;strokeColor=inherit;" vertex="1" parent="1">
          <mxGeometry x="210" y="231" width="100" height="8" as="geometry" />
        </mxCell>
        <mxCell id="QHqVFNuvtq8AHjIu-KcG-34" value="" style="endArrow=none;html=1;rounded=0;entryX=0;entryY=0.5;entryDx=0;entryDy=0;" edge="1" parent="1" target="QHqVFNuvtq8AHjIu-KcG-5">
          <mxGeometry width="50" height="50" relative="1" as="geometry">
            <mxPoint x="210" y="260" as="sourcePoint" />
            <mxPoint x="125.88235294117635" y="390" as="targetPoint" />
          </mxGeometry>
        </mxCell>
        <mxCell id="QHqVFNuvtq8AHjIu-KcG-35" value="Prend la payement,&amp;nbsp;&lt;div&gt;il faut enregistrer tous les articles.&amp;nbsp;&lt;/div&gt;&lt;div&gt;&lt;br&gt;&lt;/div&gt;&lt;div&gt;Le systeme est soumis Ã  autentification&lt;/div&gt;" style="shape=note2;boundedLbl=1;whiteSpace=wrap;html=1;size=25;verticalAlign=top;align=center;" vertex="1" parent="1">
          <mxGeometry x="480" y="179" width="120" height="151" as="geometry" />
        </mxCell>
      </root>
    </mxGraphModel>
  </diagram>
</mxfile>
